<?xml version="1.0" encoding="UTF-8"?>
<svg id="Layer_1" data-name="Layer 1" xmlns="http://www.w3.org/2000/svg" xmlns:xlink="http://www.w3.org/1999/xlink" viewBox="0 0 1660.08 318.17">
  <defs>
    <style>
      .cls-1 {
        clip-path: url(#clippath);
      }

      .cls-2 {
        fill: none;
      }

      .cls-2, .cls-3, .cls-4 {
        stroke-width: 0px;
      }

      .cls-5 {
        clip-path: url(#clippath-1);
      }

      .cls-6 {
        clip-path: url(#clippath-4);
      }

      .cls-7 {
        clip-path: url(#clippath-3);
      }

      .cls-8 {
        clip-path: url(#clippath-2);
      }

      .cls-9 {
        clip-path: url(#clippath-7);
      }

      .cls-10 {
        clip-path: url(#clippath-8);
      }

      .cls-11 {
        clip-path: url(#clippath-6);
      }

      .cls-12 {
        clip-path: url(#clippath-5);
      }

      .cls-13 {
        clip-path: url(#clippath-9);
      }

      .cls-14 {
        clip-path: url(#clippath-20);
      }

      .cls-15 {
        clip-path: url(#clippath-21);
      }

      .cls-16 {
        clip-path: url(#clippath-23);
      }

      .cls-17 {
        clip-path: url(#clippath-22);
      }

      .cls-18 {
        clip-path: url(#clippath-14);
      }

      .cls-19 {
        clip-path: url(#clippath-13);
      }

      .cls-20 {
        clip-path: url(#clippath-12);
      }

      .cls-21 {
        clip-path: url(#clippath-10);
      }

      .cls-22 {
        clip-path: url(#clippath-15);
      }

      .cls-23 {
        clip-path: url(#clippath-17);
      }

      .cls-24 {
        clip-path: url(#clippath-16);
      }

      .cls-25 {
        clip-path: url(#clippath-19);
      }

      .cls-26 {
        clip-path: url(#clippath-11);
      }

      .cls-27 {
        clip-path: url(#clippath-18);
      }

      .cls-28 {
        fill: #ffc840;
      }

      .cls-28, .cls-29 {
        stroke: #282828;
        stroke-miterlimit: 10;
      }

      .cls-29 {
        fill: #f9a474;
      }

      .cls-3 {
        fill: #222;
        fill-rule: evenodd;
      }

      .cls-4 {
        fill: #fff;
      }
    </style>
    <clipPath id="clippath">
      <rect class="cls-2" x=".45" y="117.11" width="206.79" height="94.84"/>
    </clipPath>
    <clipPath id="clippath-1">
      <rect class="cls-2" x=".45" y="117.11" width="206.27" height="94.84"/>
    </clipPath>
    <clipPath id="clippath-2">
      <rect class="cls-2" x="207.04" y="117.11" width="206.27" height="94.84"/>
    </clipPath>
    <clipPath id="clippath-3">
      <rect class="cls-2" x="207.24" y="117.11" width="206.79" height="94.84"/>
    </clipPath>
    <clipPath id="clippath-4">
      <rect class="cls-2" x="207.77" y="117.11" width="206.27" height="94.84"/>
    </clipPath>
    <clipPath id="clippath-5">
      <rect class="cls-2" x="1.18" y="117.11" width="206.27" height="94.84"/>
    </clipPath>
    <clipPath id="clippath-6">
      <rect class="cls-2" x="415.11" y="118.07" width="206.79" height="94.84"/>
    </clipPath>
    <clipPath id="clippath-7">
      <rect class="cls-2" x="415.11" y="118.07" width="206.27" height="94.84"/>
    </clipPath>
    <clipPath id="clippath-8">
      <rect class="cls-2" x="621.7" y="118.07" width="206.27" height="94.84"/>
    </clipPath>
    <clipPath id="clippath-9">
      <rect class="cls-2" x="621.9" y="118.07" width="206.79" height="94.84"/>
    </clipPath>
    <clipPath id="clippath-10">
      <rect class="cls-2" x="622.43" y="118.07" width="206.27" height="94.84"/>
    </clipPath>
    <clipPath id="clippath-11">
      <rect class="cls-2" x="415.84" y="118.07" width="206.27" height="94.84"/>
    </clipPath>
    <clipPath id="clippath-12">
      <rect class="cls-2" x="829.9" y="118.07" width="206.79" height="94.84"/>
    </clipPath>
    <clipPath id="clippath-13">
      <rect class="cls-2" x="829.9" y="118.07" width="206.27" height="94.84"/>
    </clipPath>
    <clipPath id="clippath-14">
      <rect class="cls-2" x="1036.49" y="118.07" width="206.27" height="94.84"/>
    </clipPath>
    <clipPath id="clippath-15">
      <rect class="cls-2" x="1036.69" y="118.07" width="206.79" height="94.84"/>
    </clipPath>
    <clipPath id="clippath-16">
      <rect class="cls-2" x="1037.22" y="118.07" width="206.27" height="94.84"/>
    </clipPath>
    <clipPath id="clippath-17">
      <rect class="cls-2" x="830.63" y="118.07" width="206.27" height="94.84"/>
    </clipPath>
    <clipPath id="clippath-18">
      <rect class="cls-2" x="1244.7" y="118.07" width="206.79" height="94.84"/>
    </clipPath>
    <clipPath id="clippath-19">
      <rect class="cls-2" x="1244.7" y="118.07" width="206.27" height="94.84"/>
    </clipPath>
    <clipPath id="clippath-20">
      <rect class="cls-2" x="1451.29" y="118.07" width="206.27" height="94.84"/>
    </clipPath>
    <clipPath id="clippath-21">
      <rect class="cls-2" x="1451.49" y="118.07" width="206.79" height="94.84"/>
    </clipPath>
    <clipPath id="clippath-22">
      <rect class="cls-2" x="1452.02" y="118.07" width="206.27" height="94.84"/>
    </clipPath>
    <clipPath id="clippath-23">
      <rect class="cls-2" x="1245.42" y="118.07" width="206.27" height="94.84"/>
    </clipPath>
  </defs>
  <rect class="cls-28" x=".52" y=".5" width="1659.04" height="317.17" rx="54.38" ry="54.38"/>
  <circle class="cls-2" cx="109.62" cy="87.87" r="70.74"/>
  <g>
    <g>
      <g>
        <g id="_Mirror_Repeat_" data-name="&amp;lt;Mirror Repeat&amp;gt;">
          <g class="cls-1">
            <g>
              <g id="_Mirror_Repeat_-2" data-name="&amp;lt;Mirror Repeat&amp;gt;">
                <g class="cls-5">
                  <path class="cls-29" d="m.87,117.39l33.61,50.87c37.56,56.84,97.46,57.68,135.68,1.9l36.15-52.76"/>
                </g>
              </g>
              <g id="_Mirror_Repeat_-3" data-name="&amp;lt;Mirror Repeat&amp;gt;">
                <g class="cls-8">
                  <path class="cls-29" d="m412.89,117.39l-33.61,50.87c-37.56,56.84-97.46,57.68-135.68,1.9l-36.15-52.76"/>
                </g>
              </g>
            </g>
          </g>
        </g>
        <g id="_Mirror_Repeat_-4" data-name="&amp;lt;Mirror Repeat&amp;gt;">
          <g class="cls-7">
            <g>
              <g id="_Mirror_Repeat_-5" data-name="&amp;lt;Mirror Repeat&amp;gt;">
                <g class="cls-6">
                  <path class="cls-29" d="m413.62,117.39l-33.61,50.87c-37.56,56.84-97.46,57.68-135.68,1.9l-36.15-52.76"/>
                </g>
              </g>
              <g id="_Mirror_Repeat_-6" data-name="&amp;lt;Mirror Repeat&amp;gt;">
                <g class="cls-12">
                  <path class="cls-29" d="m1.6,117.39l33.61,50.87c37.56,56.84,97.46,57.68,135.68,1.9l36.15-52.76"/>
                </g>
              </g>
            </g>
          </g>
        </g>
      </g>
      <g>
        <g id="_Mirror_Repeat_-7" data-name="&amp;lt;Mirror Repeat&amp;gt;">
          <g class="cls-11">
            <g>
              <g id="_Mirror_Repeat_-8" data-name="&amp;lt;Mirror Repeat&amp;gt;">
                <g class="cls-9">
                  <path class="cls-29" d="m415.52,118.35l33.61,50.87c37.56,56.84,97.46,57.68,135.68,1.9l36.15-52.76"/>
                </g>
              </g>
              <g id="_Mirror_Repeat_-9" data-name="&amp;lt;Mirror Repeat&amp;gt;">
                <g class="cls-10">
                  <path class="cls-29" d="m827.55,118.35l-33.61,50.87c-37.56,56.84-97.46,57.68-135.68,1.9l-36.15-52.76"/>
                </g>
              </g>
            </g>
          </g>
        </g>
        <g id="_Mirror_Repeat_-10" data-name="&amp;lt;Mirror Repeat&amp;gt;">
          <g class="cls-13">
            <g>
              <g id="_Mirror_Repeat_-11" data-name="&amp;lt;Mirror Repeat&amp;gt;">
                <g class="cls-21">
                  <path class="cls-29" d="m828.28,118.35l-33.61,50.87c-37.56,56.84-97.46,57.68-135.68,1.9l-36.15-52.76"/>
                </g>
              </g>
              <g id="_Mirror_Repeat_-12" data-name="&amp;lt;Mirror Repeat&amp;gt;">
                <g class="cls-26">
                  <path class="cls-29" d="m416.25,118.35l33.61,50.87c37.56,56.84,97.46,57.68,135.68,1.9l36.15-52.76"/>
                </g>
              </g>
            </g>
          </g>
        </g>
      </g>
      <g>
        <g id="_Mirror_Repeat_-13" data-name="&amp;lt;Mirror Repeat&amp;gt;">
          <g class="cls-20">
            <g>
              <g id="_Mirror_Repeat_-14" data-name="&amp;lt;Mirror Repeat&amp;gt;">
                <g class="cls-19">
                  <path class="cls-29" d="m830.32,118.35l33.61,50.87c37.56,56.84,97.46,57.68,135.68,1.9l36.15-52.76"/>
                </g>
              </g>
              <g id="_Mirror_Repeat_-15" data-name="&amp;lt;Mirror Repeat&amp;gt;">
                <g class="cls-18">
                  <path class="cls-29" d="m1242.34,118.35l-33.61,50.87c-37.56,56.84-97.46,57.68-135.68,1.9l-36.15-52.76"/>
                </g>
              </g>
            </g>
          </g>
        </g>
        <g id="_Mirror_Repeat_-16" data-name="&amp;lt;Mirror Repeat&amp;gt;">
          <g class="cls-22">
            <g>
              <g id="_Mirror_Repeat_-17" data-name="&amp;lt;Mirror Repeat&amp;gt;">
                <g class="cls-24">
                  <path class="cls-29" d="m1243.07,118.35l-33.61,50.87c-37.56,56.84-97.46,57.68-135.68,1.9l-36.15-52.76"/>
                </g>
              </g>
              <g id="_Mirror_Repeat_-18" data-name="&amp;lt;Mirror Repeat&amp;gt;">
                <g class="cls-23">
                  <path class="cls-29" d="m831.05,118.35l33.61,50.87c37.56,56.84,97.46,57.68,135.68,1.9l36.15-52.76"/>
                </g>
              </g>
            </g>
          </g>
        </g>
      </g>
      <g>
        <g id="_Mirror_Repeat_-19" data-name="&amp;lt;Mirror Repeat&amp;gt;">
          <g class="cls-27">
            <g>
              <g id="_Mirror_Repeat_-20" data-name="&amp;lt;Mirror Repeat&amp;gt;">
                <g class="cls-25">
                  <path class="cls-29" d="m1245.11,118.35l33.61,50.87c37.56,56.84,97.46,57.68,135.68,1.9l36.15-52.76"/>
                </g>
              </g>
              <g id="_Mirror_Repeat_-21" data-name="&amp;lt;Mirror Repeat&amp;gt;">
                <g class="cls-14">
                  <path class="cls-29" d="m1657.14,118.35l-33.61,50.87c-37.56,56.84-97.46,57.68-135.68,1.9l-36.15-52.76"/>
                </g>
              </g>
            </g>
          </g>
        </g>
        <g id="_Mirror_Repeat_-22" data-name="&amp;lt;Mirror Repeat&amp;gt;">
          <g class="cls-15">
            <g>
              <g id="_Mirror_Repeat_-23" data-name="&amp;lt;Mirror Repeat&amp;gt;">
                <g class="cls-17">
                  <path class="cls-29" d="m1657.87,118.35l-33.61,50.87c-37.56,56.84-97.46,57.68-135.68,1.9l-36.15-52.76"/>
                </g>
              </g>
              <g id="_Mirror_Repeat_-24" data-name="&amp;lt;Mirror Repeat&amp;gt;">
                <g class="cls-16">
                  <path class="cls-29" d="m1245.84,118.35l33.61,50.87c37.56,56.84,97.46,57.68,135.68,1.9l36.15-52.76"/>
                </g>
              </g>
            </g>
          </g>
        </g>
      </g>
    </g>
    <path class="cls-29" d="m.5,120.38l.04-67.15C.56,24.1,24.17.5,53.3.5h1553.52c29.15,0,52.78,23.64,52.76,52.79l-.04,67.09"/>
  </g>
  <path class="cls-4" d="m1557.35,60.44c0-15.1,12.24-27.34,27.34-27.34s27.34,12.24,27.34,27.34v27.34h-27.34c-15.1,0-27.34-12.24-27.34-27.34Z"/>
  <path class="cls-3" d="m1610.52,60.44v25.83h-25.83c-14.27,0-25.83-11.56-25.83-25.83s11.56-25.83,25.83-25.83,25.83,11.56,25.83,25.83Zm-57.08,0c0-17.26,13.99-31.25,31.25-31.25s31.25,13.99,31.25,31.25v31.25h-31.25c-17.26,0-31.25-13.99-31.25-31.25Zm12.42,1.24c0,6.45,4.33,11.88,11.26,11.88,5.7,0,9.54-3.75,10.47-8.66h-5.61c-.71,2.25-2.52,3.62-4.86,3.62-3.49,0-5.79-2.74-5.79-6.84s2.3-6.85,5.79-6.85c2.25,0,4.02,1.28,4.77,3.4h5.65c-1.02-4.77-4.81-8.44-10.42-8.44-6.93,0-11.26,5.43-11.26,11.88Zm29.26-11.26h-5.3v22.52h5.52v-11.75c0-2.21.62-3.67,1.68-4.55.93-.84,2.16-1.28,4.15-1.28h1.41v-5.21h-1.37c-2.91,0-4.86,1.06-6.09,2.69v-2.43Z"/>
</svg>